<?xml version="1.0" encoding="UTF-8"?>
<!-- Created with Inkscape (http://www.inkscape.org/) -->
<svg width="500" height="500" version="1.1" viewBox="0 0 66146 66146" xmlns="http://www.w3.org/2000/svg">
 <defs>
  <clipPath id="a">
   <rect width="324.67" height="220.72" fill="#ffd5d5" opacity=".43538" stroke="#ffd5d5" stroke-width=".26747" style="paint-order:stroke fill markers"/>
  </clipPath>
 </defs>
 <g transform="matrix(500.01 0 0 500.01 550.51 -3213)">
  <path d="m131.19 72.57a66.145 66.145 0 0 1-66.145 66.145 66.145 66.145 0 0 1-66.145-66.145 66.145 66.145 0 0 1 66.145-66.145 66.145 66.145 0 0 1 66.145 66.145z" fill="#fff" stroke-width=".047776" style="paint-order:stroke fill markers"/>
  <g transform="matrix(.35278 0 0 .35278 -62.23 -49.095)">
   <g transform="matrix(.89007 0 0 .89007 -479.35 -21.014)">
    <g transform="matrix(.82788 0 0 .5965 210.69 165.9)">
     <path d="m727.68 198.34h1.7404v227.36h-1.7404z" fill="#ff8080"/>
     <path d="m836.02 648.35h227.36v1.7404h-227.36z" fill="#ffd5d5"/>
     <path d="m715.14 159.56v502.94" fill="#4d4d4d" stroke="#4d4d4d" stroke-width=".2015"/>
     <path d="m707.87 159.56h7.3738v502.94h-7.3738z" fill="#ff2a2a" opacity=".88683" stroke-width="0" style="paint-order:stroke fill markers"/>
    </g>
    <g transform="matrix(.50902 0 0 .50902 84.49 258.12)" clip-path="url(#a)" fill="#ff8080" stroke="#800000">
     <g aria-label="IKISAKI">
      <path d="m1174.2 428.56h10.524v-52.691h-10.524z"/>
      <path d="m1197.7 428.56h10.524v-14.79l6.8975-8.8885 13.653 23.679h11.519l-18.915-31.927 16.07-20.763h-11.591l-17.421 22.897h-0.2134v-22.897h-10.524z"/>
      <path d="m1246.5 428.56h10.524v-52.691h-10.524z"/>
      <path d="m1285.7 429.56c12.159 0 19.341-7.3241 19.341-15.928 0-7.6085-4.1954-11.662-10.595-14.293l-6.8974-2.9154c-4.4798-1.7777-8.1774-3.1287-8.1774-6.8974 0-3.4843 2.9154-5.5464 7.5374-5.5464 4.3376 0 7.8219 1.5644 11.164 4.3376l5.3331-6.613c-4.2665-4.3376-10.382-6.7552-16.497-6.7552-10.666 0-18.204 6.613-18.204 15.217 0 7.6796 5.3331 11.946 10.666 14.15l7.0397 2.9865c4.6931 1.991 7.8929 3.1998 7.8929 7.1108 0 3.6976-2.9154 6.0442-8.3907 6.0442-4.622 0-9.5995-2.3466-13.368-5.8308l-6.0442 7.253c5.1198 4.9064 12.159 7.6796 19.199 7.6796z"/>
      <path d="m1325.8 401.12c1.5644-5.4753 3.1288-11.448 4.4798-17.208h0.3555c1.4933 5.6886 2.9155 11.733 4.5509 17.208l1.5644 5.7597h-12.515zm-18.204 27.448h10.666l3.6976-13.51h17.066l3.6977 13.51h11.022l-16.924-52.691h-12.373z"/>
      <path d="m1359.9 428.56h10.524v-14.79l6.8974-8.8885 13.653 23.679h11.52l-18.915-31.927 16.07-20.763h-11.591l-17.421 22.897h-0.2133v-22.897h-10.524z"/>
      <path d="m1408.7 428.56h10.524v-52.691h-10.524z"/>
     </g>
     <g transform="scale(1.0799 .92601)" stroke-width=".92601" aria-label="Transfer">
      <path d="m1123.9 490.9v-3.1197h21.781v3.1197h-9.1321v25.922h-3.5167v-25.922z"/>
      <path d="m1148.4 516.82v-21.781h3.2331v3.2898h0.2269q0.5955-1.6166 2.1554-2.6234 1.5598-1.0068 3.5167-1.0068 0.3687 0 0.9217 0.0142t0.8366 0.0425v3.4033q-0.1701-0.0425-0.7799-0.12763-0.5955-0.0993-1.262-0.0993-1.5882 0-2.8361 0.66648-1.2337 0.65229-1.9569 1.8151-0.709 1.1486-0.709 2.6234v13.783z"/>
      <path d="m1169.6 517.34q-2.0703 0-3.7578-0.77992-1.6874-0.79409-2.6801-2.283-0.9926-1.5031-0.9926-3.6302 0-1.8718 0.7374-3.0346 0.7374-1.177 1.9711-1.8434 1.2336-0.66647 2.7226-0.99262 1.5031-0.34032 3.0204-0.53885 1.9852-0.25524 3.2189-0.38287 1.2479-0.1418 1.8151-0.46795 0.5814-0.32614 0.5814-1.1344v-0.11344q0-2.0987-1.1486-3.2615-1.1345-1.1628-3.4459-1.1628-2.3964 0-3.7577 1.0493t-1.9144 2.2405l-3.1764-1.1344q0.8509-1.9852 2.2689-3.0913 1.4322-1.1202 3.1197-1.5598 1.7016-0.45377 3.3465-0.45377 1.0493 0 2.4107 0.25524 1.3754 0.24107 2.6517 1.0068 1.2904 0.76574 2.1412 2.3114t0.8508 4.1406v14.35h-3.3465v-2.9495h-0.1702q-0.3403 0.70901-1.1344 1.5173t-2.1129 1.3755-3.2189 0.56721zm0.5105-3.0062q1.9852 0 3.3465-0.77992 1.3755-0.77991 2.0703-2.0136 0.7091-1.2337 0.7091-2.595v-3.063q-0.2127 0.25525-0.9359 0.46795-0.709 0.19853-1.6449 0.35451-0.9218 0.1418-1.8009 0.25525-0.865 0.0993-1.4039 0.17016-1.3046 0.17016-2.439 0.55303-1.1202 0.36869-1.8151 1.1202-0.6806 0.73738-0.6806 2.0136 0 1.7442 1.2904 2.6375 1.3046 0.87918 3.304 0.87918z"/>
      <path d="m1189.1 503.72v13.103h-3.3465v-21.781h3.2331v3.4033h0.2836q0.7657-1.6591 2.3255-2.6659 1.5599-1.021 4.0272-1.021 2.2122 0 3.8713 0.90753 1.6591 0.89336 2.5808 2.7226 0.9217 1.8151 0.9217 4.5944v13.84h-3.3466v-13.613q0-2.5666-1.3329-3.9988-1.3329-1.4464-3.6585-1.4464-1.6024 0-2.8644 0.69483-1.2479 0.69484-1.9711 2.0278-0.7232 1.333-0.7232 3.2331z"/>
      <path d="m1224.5 499.92-3.0062 0.85082q-0.2836-0.75156-0.8367-1.4606-0.5388-0.7232-1.4747-1.1911-0.9359-0.46795-2.3965-0.46795-1.9994 0-3.3323 0.92171-1.3188 0.90754-1.3188 2.3114 0 1.2479 0.9075 1.9711 0.9076 0.7232 2.8361 1.2053l3.2331 0.79409q2.9211 0.70902 4.3533 2.1696 1.4323 1.4464 1.4323 3.7294 0 1.8718-1.0777 3.3465-1.0636 1.4748-2.9779 2.3256t-4.4526 0.85082q-3.3324 0-5.5162-1.4464-2.1837-1.4464-2.7651-4.2257l3.1764-0.79409q0.4537 1.7584 1.7158 2.6375 1.2762 0.87918 3.3324 0.87918 2.3397 0 3.7152-0.99262 1.3897-1.0068 1.3897-2.4106 0-1.1344-0.7941-1.9002-0.7941-0.77992-2.439-1.1628l-3.6302-0.85082q-2.992-0.70902-4.3959-2.198-1.3897-1.5031-1.3897-3.7578 0-1.8434 1.0352-3.2615 1.0493-1.418 2.8502-2.2263 1.8151-0.80827 4.1123-0.80827 3.2331 0 5.0766 1.418 1.8576 1.418 2.6375 3.7436z"/>
      <path d="m1239.6 495.04v2.8361h-11.741v-2.8361zm-8.2245 21.781v-24.787q0-1.8718 0.8791-3.1197 0.8792-1.2479 2.2831-1.8718 1.4038-0.62394 2.9636-0.62394 1.2337 0 2.0136 0.19853 0.78 0.19852 1.1628 0.36869l-0.9642 2.8928q-0.2553-0.0851-0.709-0.21271-0.4396-0.12762-1.1628-0.12762-1.6591 0-2.3965 0.83664-0.7232 0.83663-0.7232 2.4532v23.993z"/>
      <path d="m1252.4 517.28q-3.148 0-5.4311-1.3897-2.2688-1.4038-3.5025-3.9138-1.2195-2.5241-1.2195-5.8706t1.2195-5.899q1.2337-2.5666 3.4316-3.9988 2.2122-1.4464 5.1617-1.4464 1.7016 0 3.3607 0.56721t3.0204 1.8434q1.3613 1.262 2.1696 3.3465t0.8083 5.1333v1.418h-16.79v-2.8928h13.386q0-1.8434-0.7374-3.2898-0.7232-1.4464-2.0703-2.283-1.333-0.83664-3.148-0.83664-1.9995 0-3.46 0.99262-1.4464 0.97844-2.2263 2.5524t-0.7799 3.3749v1.9285q0 2.4674 0.8508 4.1832 0.865 1.7016 2.3964 2.595 1.5315 0.87918 3.5593 0.87918 1.3188 0 2.3823-0.36869 1.0777-0.38287 1.8576-1.1344 0.7799-0.76574 1.2053-1.9002l3.2331 0.90754q-0.5105 1.6449-1.7158 2.8928-1.2053 1.2337-2.9778 1.9285-1.7726 0.68065-3.9847 0.68065z"/>
      <path d="m1266.5 516.82v-21.781h3.2331v3.2898h0.2269q0.5956-1.6166 2.1554-2.6234 1.5599-1.0068 3.5167-1.0068 0.3687 0 0.9218 0.0142 0.553 0.0142 0.8366 0.0425v3.4033q-0.1702-0.0425-0.7799-0.12763-0.5956-0.0993-1.2621-0.0993-1.5882 0-2.836 0.66648-1.2337 0.65229-1.9569 1.8151-0.709 1.1486-0.709 2.6234v13.783z"/>
     </g>
    </g>
   </g>
   <g transform="matrix(.89007 0 0 .89007 186.73 43.384)" fill="#d40000" opacity=".14583" stroke="#ff2a2a">
    <path transform="matrix(.50902 0 0 .50902 -514.31 176.16)" d="m1358.4 185.74 28.36 59.184-3.863 1.851-28.36-59.183z" opacity="1"/>
    <path transform="matrix(.50902 0 0 .50902 -514.31 176.16)" d="m1326.3 229.35 28.359 59.18-3.863 1.852-28.359-59.18z" opacity="1"/>
    <path transform="matrix(.50902 0 0 .50902 -514.31 176.16)" d="m1357.7 291.13-36.812 50.535-3.051-2.598 36.812-50.535z" opacity="1"/>
    <path transform="matrix(.50902 0 0 .50902 -514.31 176.16)" d="m1349.7 296.58-48.757-14.508 1.191-3.8 48.758 14.507z" opacity="1"/>
    <path transform="matrix(.50902 0 0 .50902 -514.31 176.16)" d="m1356.7 286.32 21.996-45.871 3.567 1.774-21.992 45.871z" opacity="1"/>
    <path transform="matrix(.50902 0 0 .50902 -514.31 176.16)" d="m1419.5 291.66 24.774-47.227 3.722 1.969-24.769 47.231z" opacity="1"/>
    <path transform="matrix(.50902 0 0 .50902 -514.31 176.16)" d="m1386.7 236.88 61.199 1.304-0.078 4.211-61.2-1.3z" opacity="1"/>
    <path transform="matrix(.50902 0 0 .50902 -514.31 176.16)" d="m1420.7 293.63 28.356 59.179-3.863 1.852-28.356-59.18z" opacity="1"/>
    <path transform="matrix(.50902 0 0 .50902 -514.31 176.16)" d="m1420.7 293.63 72.797-4.77 0.258 4.207-72.797 4.77z" opacity="1"/>
    <path transform="matrix(.50902 0 0 .50902 -514.31 176.16)" d="m1357.7 293.66 61.203 1.305-0.078 4.211-61.199-1.305z" opacity="1"/>
    <path transform="matrix(.50902 0 0 .50902 -514.31 176.16)" d="m1419.9 298.08-36.813 50.535-3.054-2.597 36.812-50.532z" opacity="1"/>
    <path transform="matrix(.50902 0 0 .50902 -514.31 176.16)" d="m1428.4 201.13 24.367 39.078-4.129 1.125-24.371-39.078z" opacity="1"/>
    <path transform="matrix(.50902 0 0 .50902 -514.31 176.16)" d="m1431.3 196.43c0 4.086-3.313 7.395-7.395 7.395-4.086 0-7.394-3.309-7.394-7.395 0-4.082 3.308-7.39 7.394-7.39 4.082 0 7.395 3.308 7.395 7.39z" opacity="1"/>
    <path transform="matrix(.50902 0 0 .50902 -514.31 176.16)" d="m1495.2 205.11-47.601 40.528-2.364-3.239 47.606-40.527z" opacity="1"/>
    <path transform="matrix(.50902 0 0 .50902 -514.31 176.16)" d="m1395.5 239.46c0 7.715-6.254 13.973-13.973 13.973s-13.972-6.258-13.972-13.973c0-7.719 6.253-13.977 13.972-13.977s13.973 6.258 13.973 13.977z" opacity="1"/>
    <path transform="matrix(.50902 0 0 .50902 -514.31 176.16)" d="m1311 279.27c0 4.378-3.551 7.929-7.93 7.929-4.382 0-7.929-3.551-7.929-7.929 0-4.379 3.547-7.93 7.929-7.93 4.379 0 7.93 3.551 7.93 7.93z" opacity="1"/>
    <path transform="matrix(.50902 0 0 .50902 -514.31 176.16)" d="m1459.3 239.45c0 5.614-4.555 10.168-10.172 10.168s-10.168-4.554-10.168-10.168c0-5.617 4.551-10.172 10.168-10.172s10.172 4.555 10.172 10.172z" opacity="1"/>
    <path transform="matrix(.50902 0 0 .50902 -514.31 176.16)" d="m1363.1 293.99c0 5.508-4.465 9.977-9.977 9.977s-9.977-4.469-9.977-9.977c0-5.511 4.465-9.976 9.977-9.976s9.977 4.465 9.977 9.976z" opacity="1"/>
    <path transform="matrix(.50902 0 0 .50902 -514.31 176.16)" d="m1336.2 332.56c0 6.226-5.047 11.273-11.274 11.273-6.223 0-11.269-5.047-11.269-11.273 0-6.227 5.046-11.274 11.269-11.274 6.227 0 11.274 5.047 11.274 11.274z" opacity="1"/>
    <path transform="matrix(.50902 0 0 .50902 -514.31 176.16)" d="m1363.7 186.36c0 4.082-3.309 7.395-7.394 7.395-4.083 0-7.391-3.313-7.391-7.395s3.308-7.394 7.391-7.394c4.085 0 7.394 3.312 7.394 7.394z" opacity="1"/>
    <path transform="matrix(.50902 0 0 .50902 -514.31 176.16)" d="m1455.6 354.72c0 4.379-3.551 7.929-7.93 7.929s-7.929-3.55-7.929-7.929 3.55-7.93 7.929-7.93 7.93 3.551 7.93 7.93z" opacity="1"/>
    <path transform="matrix(.50902 0 0 .50902 -514.31 176.16)" d="m1334.3 230.27c0 5.614-4.555 10.168-10.168 10.168-5.617 0-10.172-4.554-10.172-10.168 0-5.617 4.555-10.171 10.172-10.171 5.613 0 10.168 4.554 10.168 10.171z" opacity="1"/>
    <path transform="matrix(.50902 0 0 .50902 -514.31 176.16)" d="m1503.3 289.19c0 5.508-4.465 9.977-9.977 9.977-5.507 0-9.972-4.469-9.972-9.977 0-5.511 4.465-9.976 9.972-9.976 5.512 0 9.977 4.465 9.977 9.976z" opacity="1"/>
    <path transform="matrix(.50902 0 0 .50902 -514.31 176.16)" d="m1393.1 342.95c0 4.082-3.312 7.395-7.394 7.395s-7.395-3.313-7.395-7.395 3.313-7.394 7.395-7.394 7.394 3.312 7.394 7.394z" opacity="1"/>
    <path transform="matrix(.50902 0 0 .50902 -514.31 176.16)" d="m1496.4 206.83c0 4.379-3.547 7.93-7.93 7.93-4.379 0-7.93-3.551-7.93-7.93 0-4.383 3.551-7.93 7.93-7.93 4.383 0 7.93 3.547 7.93 7.93z" opacity="1"/>
    <path transform="matrix(.50902 0 0 .50902 -514.31 176.16)" d="m1427 295.8c0 4.082-3.313 7.394-7.395 7.394s-7.394-3.312-7.394-7.394 3.312-7.395 7.394-7.395 7.395 3.313 7.395 7.395z" opacity="1"/>
   </g>
   <g transform="matrix(.45307 0 0 .45307 -224.2 197.04)">
    <g fill="#f00">
     <path d="m1293 234.05c0 7.715-6.254 13.973-13.973 13.973s-13.972-6.258-13.972-13.973c0-7.719 6.253-13.977 13.972-13.977s13.973 6.258 13.973 13.977z"/>
     <path d="m1324.5 290.39c0 4.082-3.313 7.394-7.395 7.394s-7.394-3.312-7.394-7.394 3.312-7.395 7.394-7.395 7.395 3.313 7.395 7.395z"/>
     <path d="m1208.5 273.86c0 4.378-3.551 7.929-7.93 7.929-4.382 0-7.929-3.551-7.929-7.929 0-4.379 3.547-7.93 7.929-7.93 4.379 0 7.93 3.551 7.93 7.93z"/>
     <path d="m1356.9 234.03c0 5.614-4.555 10.168-10.172 10.168s-10.168-4.554-10.168-10.168c0-5.617 4.551-10.172 10.168-10.172s10.172 4.555 10.172 10.172z"/>
     <path d="m1260.7 288.57c0 5.508-4.465 9.977-9.977 9.977s-9.977-4.469-9.977-9.977c0-5.511 4.465-9.976 9.977-9.976s9.977 4.465 9.977 9.976z"/>
     <path d="m1233.7 327.15c0 6.226-5.047 11.273-11.274 11.273-6.223 0-11.269-5.047-11.269-11.273 0-6.227 5.046-11.274 11.269-11.274 6.227 0 11.274 5.047 11.274 11.274z"/>
     <path d="m1261.2 180.94c0 4.082-3.309 7.395-7.394 7.395-4.083 0-7.391-3.313-7.391-7.395s3.308-7.394 7.391-7.394c4.085 0 7.394 3.312 7.394 7.394z"/>
     <path d="m1353.1 349.31c0 4.379-3.551 7.929-7.93 7.929s-7.929-3.55-7.929-7.929 3.55-7.93 7.929-7.93 7.93 3.551 7.93 7.93z"/>
     <path d="m1231.8 224.86c0 5.614-4.555 10.168-10.168 10.168-5.617 0-10.172-4.554-10.172-10.168 0-5.617 4.555-10.171 10.172-10.171 5.613 0 10.168 4.554 10.168 10.171z"/>
     <path d="m1400.8 283.78c0 5.508-4.465 9.977-9.977 9.977-5.507 0-9.972-4.469-9.972-9.977 0-5.511 4.465-9.976 9.972-9.976 5.512 0 9.977 4.465 9.977 9.976z"/>
     <path d="m1255.9 180.33 28.36 59.184-3.863 1.851-28.36-59.183z"/>
     <path d="m1223.8 223.94 28.359 59.18-3.863 1.852-28.359-59.18z"/>
     <path d="m1255.2 285.72-36.812 50.535-3.051-2.598 36.812-50.535z"/>
     <path d="m1247.2 291.16-48.757-14.508 1.191-3.8 48.758 14.507z"/>
     <path d="m1254.2 280.91 21.996-45.871 3.567 1.774-21.992 45.871z"/>
     <path d="m1317 286.25 24.774-47.227 3.722 1.969-24.769 47.231z"/>
     <path d="m1284.2 231.47 61.199 1.304-0.078 4.211-61.2-1.3z"/>
     <path d="m1318.2 288.22 28.356 59.179-3.863 1.852-28.356-59.18z"/>
     <path d="m1318.2 288.22 72.797-4.77 0.258 4.207-72.797 4.77z"/>
     <path d="m1255.2 288.25 61.203 1.305-0.078 4.211-61.199-1.305z"/>
     <path d="m1290.6 337.54c0 4.082-3.312 7.395-7.394 7.395s-7.395-3.313-7.395-7.395 3.313-7.394 7.395-7.394 7.394 3.312 7.394 7.394z"/>
     <path d="m1317.4 292.67-36.813 50.535-3.054-2.597 36.812-50.532z"/>
     <path d="m1325.9 195.71 24.367 39.078-4.129 1.125-24.371-39.078z"/>
     <path d="m1328.8 191.02c0 4.086-3.313 7.395-7.395 7.395-4.086 0-7.394-3.309-7.394-7.395 0-4.082 3.308-7.39 7.394-7.39 4.082 0 7.395 3.308 7.395 7.39z"/>
     <path d="m1393.9 201.42c0 4.379-3.547 7.93-7.93 7.93-4.379 0-7.93-3.551-7.93-7.93 0-4.383 3.551-7.93 7.93-7.93 4.383 0 7.93 3.547 7.93 7.93z"/>
     <path d="m1392.7 199.7-47.601 40.528-2.364-3.239 47.606-40.527z"/>
    </g>
    <g fill="#333" aria-label="IKISAKI">
     <path d="m1174.2 428.56h10.524v-52.691h-10.524z"/>
     <path d="m1197.7 428.56h10.524v-14.79l6.8975-8.8885 13.653 23.679h11.519l-18.915-31.927 16.07-20.763h-11.591l-17.421 22.897h-0.2134v-22.897h-10.524z"/>
     <path d="m1246.5 428.56h10.524v-52.691h-10.524z"/>
     <path d="m1285.7 429.56c12.159 0 19.341-7.3241 19.341-15.928 0-7.6085-4.1954-11.662-10.595-14.293l-6.8974-2.9154c-4.4798-1.7777-8.1774-3.1287-8.1774-6.8974 0-3.4843 2.9154-5.5464 7.5374-5.5464 4.3376 0 7.8219 1.5644 11.164 4.3376l5.3331-6.613c-4.2665-4.3376-10.382-6.7552-16.497-6.7552-10.666 0-18.204 6.613-18.204 15.217 0 7.6796 5.3331 11.946 10.666 14.15l7.0397 2.9865c4.6931 1.991 7.8929 3.1998 7.8929 7.1108 0 3.6976-2.9154 6.0442-8.3907 6.0442-4.622 0-9.5995-2.3466-13.368-5.8308l-6.0442 7.253c5.1198 4.9064 12.159 7.6796 19.199 7.6796z"/>
     <path d="m1325.8 401.12c1.5644-5.4753 3.1288-11.448 4.4798-17.208h0.3555c1.4933 5.6886 2.9155 11.733 4.5509 17.208l1.5644 5.7597h-12.515zm-18.204 27.448h10.666l3.6976-13.51h17.066l3.6977 13.51h11.022l-16.924-52.691h-12.373z"/>
     <path d="m1359.9 428.56h10.524v-14.79l6.8974-8.8885 13.653 23.679h11.52l-18.915-31.927 16.07-20.763h-11.591l-17.421 22.897h-0.2133v-22.897h-10.524z"/>
     <path d="m1408.7 428.56h10.524v-52.691h-10.524z"/>
    </g>
    <g transform="scale(1.0799 .92601)" fill="#4d4d4d" stroke-width=".92601" aria-label="Transfer">
     <path d="m1123.9 490.9v-3.1197h21.781v3.1197h-9.1321v25.922h-3.5167v-25.922z"/>
     <path d="m1148.4 516.82v-21.781h3.2331v3.2898h0.2269q0.5955-1.6166 2.1554-2.6234 1.5598-1.0068 3.5167-1.0068 0.3687 0 0.9217 0.0142t0.8366 0.0425v3.4033q-0.1701-0.0425-0.7799-0.12763-0.5955-0.0993-1.262-0.0993-1.5882 0-2.8361 0.66648-1.2337 0.65229-1.9569 1.8151-0.709 1.1486-0.709 2.6234v13.783z"/>
     <path d="m1169.6 517.34q-2.0703 0-3.7578-0.77992-1.6874-0.79409-2.6801-2.283-0.9926-1.5031-0.9926-3.6302 0-1.8718 0.7374-3.0346 0.7374-1.177 1.9711-1.8434 1.2336-0.66647 2.7226-0.99262 1.5031-0.34032 3.0204-0.53885 1.9852-0.25524 3.2189-0.38287 1.2479-0.1418 1.8151-0.46795 0.5814-0.32614 0.5814-1.1344v-0.11344q0-2.0987-1.1486-3.2615-1.1345-1.1628-3.4459-1.1628-2.3964 0-3.7577 1.0493t-1.9144 2.2405l-3.1764-1.1344q0.8509-1.9852 2.2689-3.0913 1.4322-1.1202 3.1197-1.5598 1.7016-0.45377 3.3465-0.45377 1.0493 0 2.4107 0.25524 1.3754 0.24107 2.6517 1.0068 1.2904 0.76574 2.1412 2.3114t0.8508 4.1406v14.35h-3.3465v-2.9495h-0.1702q-0.3403 0.70901-1.1344 1.5173t-2.1129 1.3755-3.2189 0.56721zm0.5105-3.0062q1.9852 0 3.3465-0.77992 1.3755-0.77991 2.0703-2.0136 0.7091-1.2337 0.7091-2.595v-3.063q-0.2127 0.25525-0.9359 0.46795-0.709 0.19853-1.6449 0.35451-0.9218 0.1418-1.8009 0.25525-0.865 0.0993-1.4039 0.17016-1.3046 0.17016-2.439 0.55303-1.1202 0.36869-1.8151 1.1202-0.6806 0.73738-0.6806 2.0136 0 1.7442 1.2904 2.6375 1.3046 0.87918 3.304 0.87918z"/>
     <path d="m1189.1 503.72v13.103h-3.3465v-21.781h3.2331v3.4033h0.2836q0.7657-1.6591 2.3255-2.6659 1.5599-1.021 4.0272-1.021 2.2122 0 3.8713 0.90753 1.6591 0.89336 2.5808 2.7226 0.9217 1.8151 0.9217 4.5944v13.84h-3.3466v-13.613q0-2.5666-1.3329-3.9988-1.3329-1.4464-3.6585-1.4464-1.6024 0-2.8644 0.69483-1.2479 0.69484-1.9711 2.0278-0.7232 1.333-0.7232 3.2331z"/>
     <path d="m1224.5 499.92-3.0062 0.85082q-0.2836-0.75156-0.8367-1.4606-0.5388-0.7232-1.4747-1.1911-0.9359-0.46795-2.3965-0.46795-1.9994 0-3.3323 0.92171-1.3188 0.90754-1.3188 2.3114 0 1.2479 0.9075 1.9711 0.9076 0.7232 2.8361 1.2053l3.2331 0.79409q2.9211 0.70902 4.3533 2.1696 1.4323 1.4464 1.4323 3.7294 0 1.8718-1.0777 3.3465-1.0636 1.4748-2.9779 2.3256t-4.4526 0.85082q-3.3324 0-5.5162-1.4464-2.1837-1.4464-2.7651-4.2257l3.1764-0.79409q0.4537 1.7584 1.7158 2.6375 1.2762 0.87918 3.3324 0.87918 2.3397 0 3.7152-0.99262 1.3897-1.0068 1.3897-2.4106 0-1.1344-0.7941-1.9002-0.7941-0.77992-2.439-1.1628l-3.6302-0.85082q-2.992-0.70902-4.3959-2.198-1.3897-1.5031-1.3897-3.7578 0-1.8434 1.0352-3.2615 1.0493-1.418 2.8502-2.2263 1.8151-0.80827 4.1123-0.80827 3.2331 0 5.0766 1.418 1.8576 1.418 2.6375 3.7436z"/>
     <path d="m1239.6 495.04v2.8361h-11.741v-2.8361zm-8.2245 21.781v-24.787q0-1.8718 0.8791-3.1197 0.8792-1.2479 2.2831-1.8718 1.4038-0.62394 2.9636-0.62394 1.2337 0 2.0136 0.19853 0.78 0.19852 1.1628 0.36869l-0.9642 2.8928q-0.2553-0.0851-0.709-0.21271-0.4396-0.12762-1.1628-0.12762-1.6591 0-2.3965 0.83664-0.7232 0.83663-0.7232 2.4532v23.993z"/>
     <path d="m1252.4 517.28q-3.148 0-5.4311-1.3897-2.2688-1.4038-3.5025-3.9138-1.2195-2.5241-1.2195-5.8706t1.2195-5.899q1.2337-2.5666 3.4316-3.9988 2.2122-1.4464 5.1617-1.4464 1.7016 0 3.3607 0.56721t3.0204 1.8434q1.3613 1.262 2.1696 3.3465t0.8083 5.1333v1.418h-16.79v-2.8928h13.386q0-1.8434-0.7374-3.2898-0.7232-1.4464-2.0703-2.283-1.333-0.83664-3.148-0.83664-1.9995 0-3.46 0.99262-1.4464 0.97844-2.2263 2.5524t-0.7799 3.3749v1.9285q0 2.4674 0.8508 4.1832 0.865 1.7016 2.3964 2.595 1.5315 0.87918 3.5593 0.87918 1.3188 0 2.3823-0.36869 1.0777-0.38287 1.8576-1.1344 0.7799-0.76574 1.2053-1.9002l3.2331 0.90754q-0.5105 1.6449-1.7158 2.8928-1.2053 1.2337-2.9778 1.9285-1.7726 0.68065-3.9847 0.68065z"/>
     <path d="m1266.5 516.82v-21.781h3.2331v3.2898h0.2269q0.5956-1.6166 2.1554-2.6234 1.5599-1.0068 3.5167-1.0068 0.3687 0 0.9218 0.0142 0.553 0.0142 0.8366 0.0425v3.4033q-0.1702-0.0425-0.7799-0.12763-0.5956-0.0993-1.2621-0.0993-1.5882 0-2.836 0.66648-1.2337 0.65229-1.9569 1.8151-0.709 1.1486-0.709 2.6234v13.783z"/>
    </g>
   </g>
  </g>
 </g>
</svg>
