<?xml version="1.0" encoding="UTF-8"?>
<svg xmlns="http://www.w3.org/2000/svg" xmlns:xlink="http://www.w3.org/1999/xlink" version="1.2" baseProfile="tiny-ps" width="500" height="500" viewBox="0 0 500 500">
  <title>Ikisaki</title>

  <defs
     id="defs3144">
    <clipPath
       id="a" />
  </defs>
  <g
     id="layer1"
     transform="translate(-0.0659107,-0.07120392)">
    <g
       transform="matrix(1.000125,0,0,1.000125,1.1660482,-6.3545992)"
       id="g5341">
      <path
         d="M 131.19,72.57 A 66.145,66.145 0 0 1 65.045,138.715 66.145,66.145 0 0 1 -1.1,72.57 66.145,66.145 0 0 1 65.045,6.425 66.145,66.145 0 0 1 131.19,72.57 Z"
         fill="#ffffff"
         stroke-width="0.047776"
         style="paint-order:stroke fill markers"
         id="path5145" />
      <g
         transform="matrix(0.35278,0,0,0.35278,-62.23,-49.095)"
         id="g5339">
        <g
           transform="matrix(0.89007,0,0,0.89007,-479.35,-21.014)"
           id="g5193">
          <g
             transform="matrix(0.82788,0,0,0.5965,210.69,165.9)"
             id="g5155">
            <path
               d="m 727.68,198.34 h 1.7404 V 425.7 H 727.68 Z"
               fill="#ff8080"
               id="path5147" />
            <path
               d="m 836.02,648.35 h 227.36 v 1.7404 H 836.02 Z"
               fill="#ffd5d5"
               id="path5149" />
            <path
               d="M 715.14,159.56 V 662.5"
               fill="#4d4d4d"
               stroke="#4d4d4d"
               stroke-width="0.2015"
               id="path5151" />
            <path
               d="m 707.87,159.56 h 7.3738 V 662.5 H 707.87 Z"
               fill="#ff2a2a"
               opacity="0.88683"
               stroke-width="0"
               style="paint-order:stroke fill markers"
               id="path5153" />
          </g>
          <g
             transform="matrix(0.50902,0,0,0.50902,84.49,258.12)"
             clip-path="url(#a)"
             fill="#ff8080"
             stroke="#800000"
             id="g5191">
            <g
               aria-label="IKISAKI"
               id="g5171">
              <path
                 d="m 1174.2,428.56 h 10.524 V 375.869 H 1174.2 Z"
                 id="path5157" />
              <path
                 d="m 1197.7,428.56 h 10.524 v -14.79 l 6.8975,-8.8885 13.653,23.679 h 11.519 l -18.915,-31.927 16.07,-20.763 h -11.591 l -17.421,22.897 h -0.2134 v -22.897 h -10.524 z"
                 id="path5159" />
              <path
                 d="m 1246.5,428.56 h 10.524 V 375.869 H 1246.5 Z"
                 id="path5161" />
              <path
                 d="m 1285.7,429.56 c 12.159,0 19.341,-7.3241 19.341,-15.928 0,-7.6085 -4.1954,-11.662 -10.595,-14.293 l -6.8974,-2.9154 c -4.4798,-1.7777 -8.1774,-3.1287 -8.1774,-6.8974 0,-3.4843 2.9154,-5.5464 7.5374,-5.5464 4.3376,0 7.8219,1.5644 11.164,4.3376 l 5.3331,-6.613 c -4.2665,-4.3376 -10.382,-6.7552 -16.497,-6.7552 -10.666,0 -18.204,6.613 -18.204,15.217 0,7.6796 5.3331,11.946 10.666,14.15 l 7.0397,2.9865 c 4.6931,1.991 7.8929,3.1998 7.8929,7.1108 0,3.6976 -2.9154,6.0442 -8.3907,6.0442 -4.622,0 -9.5995,-2.3466 -13.368,-5.8308 l -6.0442,7.253 c 5.1198,4.9064 12.159,7.6796 19.199,7.6796 z"
                 id="path5163" />
              <path
                 d="m 1325.8,401.12 c 1.5644,-5.4753 3.1288,-11.448 4.4798,-17.208 h 0.3555 c 1.4933,5.6886 2.9155,11.733 4.5509,17.208 l 1.5644,5.7597 h -12.515 z m -18.204,27.448 h 10.666 l 3.6976,-13.51 h 17.066 l 3.6977,13.51 h 11.022 l -16.924,-52.691 h -12.373 z"
                 id="path5165" />
              <path
                 d="m 1359.9,428.56 h 10.524 v -14.79 l 6.8974,-8.8885 13.653,23.679 h 11.52 l -18.915,-31.927 16.07,-20.763 h -11.591 l -17.421,22.897 h -0.2133 v -22.897 h -10.524 z"
                 id="path5167" />
              <path
                 d="m 1408.7,428.56 h 10.524 V 375.869 H 1408.7 Z"
                 id="path5169" />
            </g>
            <g
               transform="scale(1.0799,0.92601)"
               stroke-width="0.92601"
               aria-label="Transfer"
               id="g5189">
              <path
                 d="m 1123.9,490.9 v -3.1197 h 21.781 V 490.9 h -9.1321 v 25.922 h -3.5167 V 490.9 Z"
                 id="path5173" />
              <path
                 d="m 1148.4,516.82 v -21.781 h 3.2331 v 3.2898 h 0.2269 q 0.5955,-1.6166 2.1554,-2.6234 1.5598,-1.0068 3.5167,-1.0068 0.3687,0 0.9217,0.0142 0.553,0.0142 0.8366,0.0425 v 3.4033 q -0.1701,-0.0425 -0.7799,-0.12763 -0.5955,-0.0993 -1.262,-0.0993 -1.5882,0 -2.8361,0.66648 -1.2337,0.65229 -1.9569,1.8151 -0.709,1.1486 -0.709,2.6234 v 13.783 z"
                 id="path5175" />
              <path
                 d="m 1169.6,517.34 q -2.0703,0 -3.7578,-0.77992 -1.6874,-0.79409 -2.6801,-2.283 -0.9926,-1.5031 -0.9926,-3.6302 0,-1.8718 0.7374,-3.0346 0.7374,-1.177 1.9711,-1.8434 1.2336,-0.66647 2.7226,-0.99262 1.5031,-0.34032 3.0204,-0.53885 1.9852,-0.25524 3.2189,-0.38287 1.2479,-0.1418 1.8151,-0.46795 0.5814,-0.32614 0.5814,-1.1344 v -0.11344 q 0,-2.0987 -1.1486,-3.2615 -1.1345,-1.1628 -3.4459,-1.1628 -2.3964,0 -3.7577,1.0493 -1.3613,1.0493 -1.9144,2.2405 l -3.1764,-1.1344 q 0.8509,-1.9852 2.2689,-3.0913 1.4322,-1.1202 3.1197,-1.5598 1.7016,-0.45377 3.3465,-0.45377 1.0493,0 2.4107,0.25524 1.3754,0.24107 2.6517,1.0068 1.2904,0.76574 2.1412,2.3114 0.8508,1.54566 0.8508,4.1406 v 14.35 h -3.3465 v -2.9495 h -0.1702 q -0.3403,0.70901 -1.1344,1.5173 -0.7941,0.80829 -2.1129,1.3755 -1.3188,0.56721 -3.2189,0.56721 z m 0.5105,-3.0062 q 1.9852,0 3.3465,-0.77992 1.3755,-0.77991 2.0703,-2.0136 0.7091,-1.2337 0.7091,-2.595 v -3.063 q -0.2127,0.25525 -0.9359,0.46795 -0.709,0.19853 -1.6449,0.35451 -0.9218,0.1418 -1.8009,0.25525 -0.865,0.0993 -1.4039,0.17016 -1.3046,0.17016 -2.439,0.55303 -1.1202,0.36869 -1.8151,1.1202 -0.6806,0.73738 -0.6806,2.0136 0,1.7442 1.2904,2.6375 1.3046,0.87918 3.304,0.87918 z"
                 id="path5177" />
              <path
                 d="m 1189.1,503.72 v 13.103 h -3.3465 v -21.781 h 3.2331 v 3.4033 h 0.2836 q 0.7657,-1.6591 2.3255,-2.6659 1.5599,-1.021 4.0272,-1.021 2.2122,0 3.8713,0.90753 1.6591,0.89336 2.5808,2.7226 0.9217,1.8151 0.9217,4.5944 v 13.84 h -3.3466 v -13.613 q 0,-2.5666 -1.3329,-3.9988 -1.3329,-1.4464 -3.6585,-1.4464 -1.6024,0 -2.8644,0.69483 -1.2479,0.69484 -1.9711,2.0278 -0.7232,1.333 -0.7232,3.2331 z"
                 id="path5179" />
              <path
                 d="m 1224.5,499.92 -3.0062,0.85082 q -0.2836,-0.75156 -0.8367,-1.4606 -0.5388,-0.7232 -1.4747,-1.1911 -0.9359,-0.46795 -2.3965,-0.46795 -1.9994,0 -3.3323,0.92171 -1.3188,0.90754 -1.3188,2.3114 0,1.2479 0.9075,1.9711 0.9076,0.7232 2.8361,1.2053 l 3.2331,0.79409 q 2.9211,0.70902 4.3533,2.1696 1.4323,1.4464 1.4323,3.7294 0,1.8718 -1.0777,3.3465 -1.0636,1.4748 -2.9779,2.3256 -1.9143,0.8508 -4.4526,0.85082 -3.3324,0 -5.5162,-1.4464 -2.1837,-1.4464 -2.7651,-4.2257 l 3.1764,-0.79409 q 0.4537,1.7584 1.7158,2.6375 1.2762,0.87918 3.3324,0.87918 2.3397,0 3.7152,-0.99262 1.3897,-1.0068 1.3897,-2.4106 0,-1.1344 -0.7941,-1.9002 -0.7941,-0.77992 -2.439,-1.1628 l -3.6302,-0.85082 q -2.992,-0.70902 -4.3959,-2.198 -1.3897,-1.5031 -1.3897,-3.7578 0,-1.8434 1.0352,-3.2615 1.0493,-1.418 2.8502,-2.2263 1.8151,-0.80827 4.1123,-0.80827 3.2331,0 5.0766,1.418 1.8576,1.418 2.6375,3.7436 z"
                 id="path5181" />
              <path
                 d="m 1239.6,495.04 v 2.8361 h -11.741 V 495.04 Z m -8.2245,21.781 v -24.787 q 0,-1.8718 0.8791,-3.1197 0.8792,-1.2479 2.2831,-1.8718 1.4038,-0.62394 2.9636,-0.62394 1.2337,0 2.0136,0.19853 0.78,0.19852 1.1628,0.36869 l -0.9642,2.8928 q -0.2553,-0.0851 -0.709,-0.21271 -0.4396,-0.12762 -1.1628,-0.12762 -1.6591,0 -2.3965,0.83664 -0.7232,0.83663 -0.7232,2.4532 v 23.993 z"
                 id="path5183" />
              <path
                 d="m 1252.4,517.28 q -3.148,0 -5.4311,-1.3897 -2.2688,-1.4038 -3.5025,-3.9138 -1.2195,-2.5241 -1.2195,-5.8706 0,-3.3465 1.2195,-5.899 1.2337,-2.5666 3.4316,-3.9988 2.2122,-1.4464 5.1617,-1.4464 1.7016,0 3.3607,0.56721 1.6591,0.56721 3.0204,1.8434 1.3613,1.262 2.1696,3.3465 0.8083,2.0845 0.8083,5.1333 v 1.418 h -16.79 v -2.8928 h 13.386 q 0,-1.8434 -0.7374,-3.2898 -0.7232,-1.4464 -2.0703,-2.283 -1.333,-0.83664 -3.148,-0.83664 -1.9995,0 -3.46,0.99262 -1.4464,0.97844 -2.2263,2.5524 -0.7799,1.57396 -0.7799,3.3749 v 1.9285 q 0,2.4674 0.8508,4.1832 0.865,1.7016 2.3964,2.595 1.5315,0.87918 3.5593,0.87918 1.3188,0 2.3823,-0.36869 1.0777,-0.38287 1.8576,-1.1344 0.7799,-0.76574 1.2053,-1.9002 l 3.2331,0.90754 q -0.5105,1.6449 -1.7158,2.8928 -1.2053,1.2337 -2.9778,1.9285 -1.7726,0.68065 -3.9847,0.68065 z"
                 id="path5185" />
              <path
                 d="m 1266.5,516.82 v -21.781 h 3.2331 v 3.2898 h 0.2269 q 0.5956,-1.6166 2.1554,-2.6234 1.5599,-1.0068 3.5167,-1.0068 0.3687,0 0.9218,0.0142 0.553,0.0142 0.8366,0.0425 v 3.4033 q -0.1702,-0.0425 -0.7799,-0.12763 -0.5956,-0.0993 -1.2621,-0.0993 -1.5882,0 -2.836,0.66648 -1.2337,0.65229 -1.9569,1.8151 -0.709,1.1486 -0.709,2.6234 v 13.783 z"
                 id="path5187" />
            </g>
          </g>
        </g>
        <g
           transform="matrix(0.89007,0,0,0.89007,186.73,43.384)"
           fill="#d40000"
           opacity="0.14583"
           stroke="#ff2a2a"
           id="g5247">
          <path
             transform="matrix(0.50902,0,0,0.50902,-514.31,176.16)"
             d="m 1358.4,185.74 28.36,59.184 -3.863,1.851 -28.36,-59.183 z"
             opacity="1"
             id="path5195" />
          <path
             transform="matrix(0.50902,0,0,0.50902,-514.31,176.16)"
             d="m 1326.3,229.35 28.359,59.18 -3.863,1.852 -28.359,-59.18 z"
             opacity="1"
             id="path5197" />
          <path
             transform="matrix(0.50902,0,0,0.50902,-514.31,176.16)"
             d="m 1357.7,291.13 -36.812,50.535 -3.051,-2.598 36.812,-50.535 z"
             opacity="1"
             id="path5199" />
          <path
             transform="matrix(0.50902,0,0,0.50902,-514.31,176.16)"
             d="m 1349.7,296.58 -48.757,-14.508 1.191,-3.8 48.758,14.507 z"
             opacity="1"
             id="path5201" />
          <path
             transform="matrix(0.50902,0,0,0.50902,-514.31,176.16)"
             d="m 1356.7,286.32 21.996,-45.871 3.567,1.774 -21.992,45.871 z"
             opacity="1"
             id="path5203" />
          <path
             transform="matrix(0.50902,0,0,0.50902,-514.31,176.16)"
             d="m 1419.5,291.66 24.774,-47.227 3.722,1.969 -24.769,47.231 z"
             opacity="1"
             id="path5205" />
          <path
             transform="matrix(0.50902,0,0,0.50902,-514.31,176.16)"
             d="m 1386.7,236.88 61.199,1.304 -0.078,4.211 -61.2,-1.3 z"
             opacity="1"
             id="path5207" />
          <path
             transform="matrix(0.50902,0,0,0.50902,-514.31,176.16)"
             d="m 1420.7,293.63 28.356,59.179 -3.863,1.852 -28.356,-59.18 z"
             opacity="1"
             id="path5209" />
          <path
             transform="matrix(0.50902,0,0,0.50902,-514.31,176.16)"
             d="m 1420.7,293.63 72.797,-4.77 0.258,4.207 -72.797,4.77 z"
             opacity="1"
             id="path5211" />
          <path
             transform="matrix(0.50902,0,0,0.50902,-514.31,176.16)"
             d="m 1357.7,293.66 61.203,1.305 -0.078,4.211 -61.199,-1.305 z"
             opacity="1"
             id="path5213" />
          <path
             transform="matrix(0.50902,0,0,0.50902,-514.31,176.16)"
             d="m 1419.9,298.08 -36.813,50.535 -3.054,-2.597 36.812,-50.532 z"
             opacity="1"
             id="path5215" />
          <path
             transform="matrix(0.50902,0,0,0.50902,-514.31,176.16)"
             d="m 1428.4,201.13 24.367,39.078 -4.129,1.125 -24.371,-39.078 z"
             opacity="1"
             id="path5217" />
          <path
             transform="matrix(0.50902,0,0,0.50902,-514.31,176.16)"
             d="m 1431.3,196.43 c 0,4.086 -3.313,7.395 -7.395,7.395 -4.086,0 -7.394,-3.309 -7.394,-7.395 0,-4.082 3.308,-7.39 7.394,-7.39 4.082,0 7.395,3.308 7.395,7.39 z"
             opacity="1"
             id="path5219" />
          <path
             transform="matrix(0.50902,0,0,0.50902,-514.31,176.16)"
             d="m 1495.2,205.11 -47.601,40.528 -2.364,-3.239 47.606,-40.527 z"
             opacity="1"
             id="path5221" />
          <path
             transform="matrix(0.50902,0,0,0.50902,-514.31,176.16)"
             d="m 1395.5,239.46 c 0,7.715 -6.254,13.973 -13.973,13.973 -7.719,0 -13.972,-6.258 -13.972,-13.973 0,-7.719 6.253,-13.977 13.972,-13.977 7.719,0 13.973,6.258 13.973,13.977 z"
             opacity="1"
             id="path5223" />
          <path
             transform="matrix(0.50902,0,0,0.50902,-514.31,176.16)"
             d="m 1311,279.27 c 0,4.378 -3.551,7.929 -7.93,7.929 -4.382,0 -7.929,-3.551 -7.929,-7.929 0,-4.379 3.547,-7.93 7.929,-7.93 4.379,0 7.93,3.551 7.93,7.93 z"
             opacity="1"
             id="path5225" />
          <path
             transform="matrix(0.50902,0,0,0.50902,-514.31,176.16)"
             d="m 1459.3,239.45 c 0,5.614 -4.555,10.168 -10.172,10.168 -5.617,0 -10.168,-4.554 -10.168,-10.168 0,-5.617 4.551,-10.172 10.168,-10.172 5.617,0 10.172,4.555 10.172,10.172 z"
             opacity="1"
             id="path5227" />
          <path
             transform="matrix(0.50902,0,0,0.50902,-514.31,176.16)"
             d="m 1363.1,293.99 c 0,5.508 -4.465,9.977 -9.977,9.977 -5.512,0 -9.977,-4.469 -9.977,-9.977 0,-5.511 4.465,-9.976 9.977,-9.976 5.512,0 9.977,4.465 9.977,9.976 z"
             opacity="1"
             id="path5229" />
          <path
             transform="matrix(0.50902,0,0,0.50902,-514.31,176.16)"
             d="m 1336.2,332.56 c 0,6.226 -5.047,11.273 -11.274,11.273 -6.223,0 -11.269,-5.047 -11.269,-11.273 0,-6.227 5.046,-11.274 11.269,-11.274 6.227,0 11.274,5.047 11.274,11.274 z"
             opacity="1"
             id="path5231" />
          <path
             transform="matrix(0.50902,0,0,0.50902,-514.31,176.16)"
             d="m 1363.7,186.36 c 0,4.082 -3.309,7.395 -7.394,7.395 -4.083,0 -7.391,-3.313 -7.391,-7.395 0,-4.082 3.308,-7.394 7.391,-7.394 4.085,0 7.394,3.312 7.394,7.394 z"
             opacity="1"
             id="path5233" />
          <path
             transform="matrix(0.50902,0,0,0.50902,-514.31,176.16)"
             d="m 1455.6,354.72 c 0,4.379 -3.551,7.929 -7.93,7.929 -4.379,0 -7.929,-3.55 -7.929,-7.929 0,-4.379 3.55,-7.93 7.929,-7.93 4.379,0 7.93,3.551 7.93,7.93 z"
             opacity="1"
             id="path5235" />
          <path
             transform="matrix(0.50902,0,0,0.50902,-514.31,176.16)"
             d="m 1334.3,230.27 c 0,5.614 -4.555,10.168 -10.168,10.168 -5.617,0 -10.172,-4.554 -10.172,-10.168 0,-5.617 4.555,-10.171 10.172,-10.171 5.613,0 10.168,4.554 10.168,10.171 z"
             opacity="1"
             id="path5237" />
          <path
             transform="matrix(0.50902,0,0,0.50902,-514.31,176.16)"
             d="m 1503.3,289.19 c 0,5.508 -4.465,9.977 -9.977,9.977 -5.507,0 -9.972,-4.469 -9.972,-9.977 0,-5.511 4.465,-9.976 9.972,-9.976 5.512,0 9.977,4.465 9.977,9.976 z"
             opacity="1"
             id="path5239" />
          <path
             transform="matrix(0.50902,0,0,0.50902,-514.31,176.16)"
             d="m 1393.1,342.95 c 0,4.082 -3.312,7.395 -7.394,7.395 -4.082,0 -7.395,-3.313 -7.395,-7.395 0,-4.082 3.313,-7.394 7.395,-7.394 4.082,0 7.394,3.312 7.394,7.394 z"
             opacity="1"
             id="path5241" />
          <path
             transform="matrix(0.50902,0,0,0.50902,-514.31,176.16)"
             d="m 1496.4,206.83 c 0,4.379 -3.547,7.93 -7.93,7.93 -4.379,0 -7.93,-3.551 -7.93,-7.93 0,-4.383 3.551,-7.93 7.93,-7.93 4.383,0 7.93,3.547 7.93,7.93 z"
             opacity="1"
             id="path5243" />
          <path
             transform="matrix(0.50902,0,0,0.50902,-514.31,176.16)"
             d="m 1427,295.8 c 0,4.082 -3.313,7.394 -7.395,7.394 -4.082,0 -7.394,-3.312 -7.394,-7.394 0,-4.082 3.312,-7.395 7.394,-7.395 4.082,0 7.395,3.313 7.395,7.395 z"
             opacity="1"
             id="path5245" />
        </g>
        <g
           transform="matrix(0.45307,0,0,0.45307,-224.2,197.04)"
           id="g5337">
          <g
             fill="#ff0000"
             id="g5301">
            <path
               d="m 1293,234.05 c 0,7.715 -6.254,13.973 -13.973,13.973 -7.719,0 -13.972,-6.258 -13.972,-13.973 0,-7.719 6.253,-13.977 13.972,-13.977 7.719,0 13.973,6.258 13.973,13.977 z"
               id="path5249" />
            <path
               d="m 1324.5,290.39 c 0,4.082 -3.313,7.394 -7.395,7.394 -4.082,0 -7.394,-3.312 -7.394,-7.394 0,-4.082 3.312,-7.395 7.394,-7.395 4.082,0 7.395,3.313 7.395,7.395 z"
               id="path5251" />
            <path
               d="m 1208.5,273.86 c 0,4.378 -3.551,7.929 -7.93,7.929 -4.382,0 -7.929,-3.551 -7.929,-7.929 0,-4.379 3.547,-7.93 7.929,-7.93 4.379,0 7.93,3.551 7.93,7.93 z"
               id="path5253" />
            <path
               d="m 1356.9,234.03 c 0,5.614 -4.555,10.168 -10.172,10.168 -5.617,0 -10.168,-4.554 -10.168,-10.168 0,-5.617 4.551,-10.172 10.168,-10.172 5.617,0 10.172,4.555 10.172,10.172 z"
               id="path5255" />
            <path
               d="m 1260.7,288.57 c 0,5.508 -4.465,9.977 -9.977,9.977 -5.512,0 -9.977,-4.469 -9.977,-9.977 0,-5.511 4.465,-9.976 9.977,-9.976 5.512,0 9.977,4.465 9.977,9.976 z"
               id="path5257" />
            <path
               d="m 1233.7,327.15 c 0,6.226 -5.047,11.273 -11.274,11.273 -6.223,0 -11.269,-5.047 -11.269,-11.273 0,-6.227 5.046,-11.274 11.269,-11.274 6.227,0 11.274,5.047 11.274,11.274 z"
               id="path5259" />
            <path
               d="m 1261.2,180.94 c 0,4.082 -3.309,7.395 -7.394,7.395 -4.083,0 -7.391,-3.313 -7.391,-7.395 0,-4.082 3.308,-7.394 7.391,-7.394 4.085,0 7.394,3.312 7.394,7.394 z"
               id="path5261" />
            <path
               d="m 1353.1,349.31 c 0,4.379 -3.551,7.929 -7.93,7.929 -4.379,0 -7.929,-3.55 -7.929,-7.929 0,-4.379 3.55,-7.93 7.929,-7.93 4.379,0 7.93,3.551 7.93,7.93 z"
               id="path5263" />
            <path
               d="m 1231.8,224.86 c 0,5.614 -4.555,10.168 -10.168,10.168 -5.617,0 -10.172,-4.554 -10.172,-10.168 0,-5.617 4.555,-10.171 10.172,-10.171 5.613,0 10.168,4.554 10.168,10.171 z"
               id="path5265" />
            <path
               d="m 1400.8,283.78 c 0,5.508 -4.465,9.977 -9.977,9.977 -5.507,0 -9.972,-4.469 -9.972,-9.977 0,-5.511 4.465,-9.976 9.972,-9.976 5.512,0 9.977,4.465 9.977,9.976 z"
               id="path5267" />
            <path
               d="m 1255.9,180.33 28.36,59.184 -3.863,1.851 -28.36,-59.183 z"
               id="path5269" />
            <path
               d="m 1223.8,223.94 28.359,59.18 -3.863,1.852 -28.359,-59.18 z"
               id="path5271" />
            <path
               d="m 1255.2,285.72 -36.812,50.535 -3.051,-2.598 36.812,-50.535 z"
               id="path5273" />
            <path
               d="m 1247.2,291.16 -48.757,-14.508 1.191,-3.8 48.758,14.507 z"
               id="path5275" />
            <path
               d="m 1254.2,280.91 21.996,-45.871 3.567,1.774 -21.992,45.871 z"
               id="path5277" />
            <path
               d="m 1317,286.25 24.774,-47.227 3.722,1.969 -24.769,47.231 z"
               id="path5279" />
            <path
               d="m 1284.2,231.47 61.199,1.304 -0.078,4.211 -61.2,-1.3 z"
               id="path5281" />
            <path
               d="m 1318.2,288.22 28.356,59.179 -3.863,1.852 -28.356,-59.18 z"
               id="path5283" />
            <path
               d="m 1318.2,288.22 72.797,-4.77 0.258,4.207 -72.797,4.77 z"
               id="path5285" />
            <path
               d="m 1255.2,288.25 61.203,1.305 -0.078,4.211 -61.199,-1.305 z"
               id="path5287" />
            <path
               d="m 1290.6,337.54 c 0,4.082 -3.312,7.395 -7.394,7.395 -4.082,0 -7.395,-3.313 -7.395,-7.395 0,-4.082 3.313,-7.394 7.395,-7.394 4.082,0 7.394,3.312 7.394,7.394 z"
               id="path5289" />
            <path
               d="m 1317.4,292.67 -36.813,50.535 -3.054,-2.597 36.812,-50.532 z"
               id="path5291" />
            <path
               d="m 1325.9,195.71 24.367,39.078 -4.129,1.125 -24.371,-39.078 z"
               id="path5293" />
            <path
               d="m 1328.8,191.02 c 0,4.086 -3.313,7.395 -7.395,7.395 -4.086,0 -7.394,-3.309 -7.394,-7.395 0,-4.082 3.308,-7.39 7.394,-7.39 4.082,0 7.395,3.308 7.395,7.39 z"
               id="path5295" />
            <path
               d="m 1393.9,201.42 c 0,4.379 -3.547,7.93 -7.93,7.93 -4.379,0 -7.93,-3.551 -7.93,-7.93 0,-4.383 3.551,-7.93 7.93,-7.93 4.383,0 7.93,3.547 7.93,7.93 z"
               id="path5297" />
            <path
               d="m 1392.7,199.7 -47.601,40.528 -2.364,-3.239 47.606,-40.527 z"
               id="path5299" />
          </g>
          <g
             fill="#333333"
             aria-label="IKISAKI"
             id="g5317">
            <path
               d="m 1174.2,428.56 h 10.524 V 375.869 H 1174.2 Z"
               id="path5303" />
            <path
               d="m 1197.7,428.56 h 10.524 v -14.79 l 6.8975,-8.8885 13.653,23.679 h 11.519 l -18.915,-31.927 16.07,-20.763 h -11.591 l -17.421,22.897 h -0.2134 v -22.897 h -10.524 z"
               id="path5305" />
            <path
               d="m 1246.5,428.56 h 10.524 V 375.869 H 1246.5 Z"
               id="path5307" />
            <path
               d="m 1285.7,429.56 c 12.159,0 19.341,-7.3241 19.341,-15.928 0,-7.6085 -4.1954,-11.662 -10.595,-14.293 l -6.8974,-2.9154 c -4.4798,-1.7777 -8.1774,-3.1287 -8.1774,-6.8974 0,-3.4843 2.9154,-5.5464 7.5374,-5.5464 4.3376,0 7.8219,1.5644 11.164,4.3376 l 5.3331,-6.613 c -4.2665,-4.3376 -10.382,-6.7552 -16.497,-6.7552 -10.666,0 -18.204,6.613 -18.204,15.217 0,7.6796 5.3331,11.946 10.666,14.15 l 7.0397,2.9865 c 4.6931,1.991 7.8929,3.1998 7.8929,7.1108 0,3.6976 -2.9154,6.0442 -8.3907,6.0442 -4.622,0 -9.5995,-2.3466 -13.368,-5.8308 l -6.0442,7.253 c 5.1198,4.9064 12.159,7.6796 19.199,7.6796 z"
               id="path5309" />
            <path
               d="m 1325.8,401.12 c 1.5644,-5.4753 3.1288,-11.448 4.4798,-17.208 h 0.3555 c 1.4933,5.6886 2.9155,11.733 4.5509,17.208 l 1.5644,5.7597 h -12.515 z m -18.204,27.448 h 10.666 l 3.6976,-13.51 h 17.066 l 3.6977,13.51 h 11.022 l -16.924,-52.691 h -12.373 z"
               id="path5311" />
            <path
               d="m 1359.9,428.56 h 10.524 v -14.79 l 6.8974,-8.8885 13.653,23.679 h 11.52 l -18.915,-31.927 16.07,-20.763 h -11.591 l -17.421,22.897 h -0.2133 v -22.897 h -10.524 z"
               id="path5313" />
            <path
               d="m 1408.7,428.56 h 10.524 V 375.869 H 1408.7 Z"
               id="path5315" />
          </g>
          <g
             transform="scale(1.0799,0.92601)"
             fill="#4d4d4d"
             stroke-width="0.92601"
             aria-label="Transfer"
             id="g5335">
            <path
               d="m 1123.9,490.9 v -3.1197 h 21.781 V 490.9 h -9.1321 v 25.922 h -3.5167 V 490.9 Z"
               id="path5319" />
            <path
               d="m 1148.4,516.82 v -21.781 h 3.2331 v 3.2898 h 0.2269 q 0.5955,-1.6166 2.1554,-2.6234 1.5598,-1.0068 3.5167,-1.0068 0.3687,0 0.9217,0.0142 0.553,0.0142 0.8366,0.0425 v 3.4033 q -0.1701,-0.0425 -0.7799,-0.12763 -0.5955,-0.0993 -1.262,-0.0993 -1.5882,0 -2.8361,0.66648 -1.2337,0.65229 -1.9569,1.8151 -0.709,1.1486 -0.709,2.6234 v 13.783 z"
               id="path5321" />
            <path
               d="m 1169.6,517.34 q -2.0703,0 -3.7578,-0.77992 -1.6874,-0.79409 -2.6801,-2.283 -0.9926,-1.5031 -0.9926,-3.6302 0,-1.8718 0.7374,-3.0346 0.7374,-1.177 1.9711,-1.8434 1.2336,-0.66647 2.7226,-0.99262 1.5031,-0.34032 3.0204,-0.53885 1.9852,-0.25524 3.2189,-0.38287 1.2479,-0.1418 1.8151,-0.46795 0.5814,-0.32614 0.5814,-1.1344 v -0.11344 q 0,-2.0987 -1.1486,-3.2615 -1.1345,-1.1628 -3.4459,-1.1628 -2.3964,0 -3.7577,1.0493 -1.3613,1.0493 -1.9144,2.2405 l -3.1764,-1.1344 q 0.8509,-1.9852 2.2689,-3.0913 1.4322,-1.1202 3.1197,-1.5598 1.7016,-0.45377 3.3465,-0.45377 1.0493,0 2.4107,0.25524 1.3754,0.24107 2.6517,1.0068 1.2904,0.76574 2.1412,2.3114 0.8508,1.54566 0.8508,4.1406 v 14.35 h -3.3465 v -2.9495 h -0.1702 q -0.3403,0.70901 -1.1344,1.5173 -0.7941,0.80829 -2.1129,1.3755 -1.3188,0.56721 -3.2189,0.56721 z m 0.5105,-3.0062 q 1.9852,0 3.3465,-0.77992 1.3755,-0.77991 2.0703,-2.0136 0.7091,-1.2337 0.7091,-2.595 v -3.063 q -0.2127,0.25525 -0.9359,0.46795 -0.709,0.19853 -1.6449,0.35451 -0.9218,0.1418 -1.8009,0.25525 -0.865,0.0993 -1.4039,0.17016 -1.3046,0.17016 -2.439,0.55303 -1.1202,0.36869 -1.8151,1.1202 -0.6806,0.73738 -0.6806,2.0136 0,1.7442 1.2904,2.6375 1.3046,0.87918 3.304,0.87918 z"
               id="path5323" />
            <path
               d="m 1189.1,503.72 v 13.103 h -3.3465 v -21.781 h 3.2331 v 3.4033 h 0.2836 q 0.7657,-1.6591 2.3255,-2.6659 1.5599,-1.021 4.0272,-1.021 2.2122,0 3.8713,0.90753 1.6591,0.89336 2.5808,2.7226 0.9217,1.8151 0.9217,4.5944 v 13.84 h -3.3466 v -13.613 q 0,-2.5666 -1.3329,-3.9988 -1.3329,-1.4464 -3.6585,-1.4464 -1.6024,0 -2.8644,0.69483 -1.2479,0.69484 -1.9711,2.0278 -0.7232,1.333 -0.7232,3.2331 z"
               id="path5325" />
            <path
               d="m 1224.5,499.92 -3.0062,0.85082 q -0.2836,-0.75156 -0.8367,-1.4606 -0.5388,-0.7232 -1.4747,-1.1911 -0.9359,-0.46795 -2.3965,-0.46795 -1.9994,0 -3.3323,0.92171 -1.3188,0.90754 -1.3188,2.3114 0,1.2479 0.9075,1.9711 0.9076,0.7232 2.8361,1.2053 l 3.2331,0.79409 q 2.9211,0.70902 4.3533,2.1696 1.4323,1.4464 1.4323,3.7294 0,1.8718 -1.0777,3.3465 -1.0636,1.4748 -2.9779,2.3256 -1.9143,0.8508 -4.4526,0.85082 -3.3324,0 -5.5162,-1.4464 -2.1837,-1.4464 -2.7651,-4.2257 l 3.1764,-0.79409 q 0.4537,1.7584 1.7158,2.6375 1.2762,0.87918 3.3324,0.87918 2.3397,0 3.7152,-0.99262 1.3897,-1.0068 1.3897,-2.4106 0,-1.1344 -0.7941,-1.9002 -0.7941,-0.77992 -2.439,-1.1628 l -3.6302,-0.85082 q -2.992,-0.70902 -4.3959,-2.198 -1.3897,-1.5031 -1.3897,-3.7578 0,-1.8434 1.0352,-3.2615 1.0493,-1.418 2.8502,-2.2263 1.8151,-0.80827 4.1123,-0.80827 3.2331,0 5.0766,1.418 1.8576,1.418 2.6375,3.7436 z"
               id="path5327" />
            <path
               d="m 1239.6,495.04 v 2.8361 h -11.741 V 495.04 Z m -8.2245,21.781 v -24.787 q 0,-1.8718 0.8791,-3.1197 0.8792,-1.2479 2.2831,-1.8718 1.4038,-0.62394 2.9636,-0.62394 1.2337,0 2.0136,0.19853 0.78,0.19852 1.1628,0.36869 l -0.9642,2.8928 q -0.2553,-0.0851 -0.709,-0.21271 -0.4396,-0.12762 -1.1628,-0.12762 -1.6591,0 -2.3965,0.83664 -0.7232,0.83663 -0.7232,2.4532 v 23.993 z"
               id="path5329" />
            <path
               d="m 1252.4,517.28 q -3.148,0 -5.4311,-1.3897 -2.2688,-1.4038 -3.5025,-3.9138 -1.2195,-2.5241 -1.2195,-5.8706 0,-3.3465 1.2195,-5.899 1.2337,-2.5666 3.4316,-3.9988 2.2122,-1.4464 5.1617,-1.4464 1.7016,0 3.3607,0.56721 1.6591,0.56721 3.0204,1.8434 1.3613,1.262 2.1696,3.3465 0.8083,2.0845 0.8083,5.1333 v 1.418 h -16.79 v -2.8928 h 13.386 q 0,-1.8434 -0.7374,-3.2898 -0.7232,-1.4464 -2.0703,-2.283 -1.333,-0.83664 -3.148,-0.83664 -1.9995,0 -3.46,0.99262 -1.4464,0.97844 -2.2263,2.5524 -0.7799,1.57396 -0.7799,3.3749 v 1.9285 q 0,2.4674 0.8508,4.1832 0.865,1.7016 2.3964,2.595 1.5315,0.87918 3.5593,0.87918 1.3188,0 2.3823,-0.36869 1.0777,-0.38287 1.8576,-1.1344 0.7799,-0.76574 1.2053,-1.9002 l 3.2331,0.90754 q -0.5105,1.6449 -1.7158,2.8928 -1.2053,1.2337 -2.9778,1.9285 -1.7726,0.68065 -3.9847,0.68065 z"
               id="path5331" />
            <path
               d="m 1266.5,516.82 v -21.781 h 3.2331 v 3.2898 h 0.2269 q 0.5956,-1.6166 2.1554,-2.6234 1.5599,-1.0068 3.5167,-1.0068 0.3687,0 0.9218,0.0142 0.553,0.0142 0.8366,0.0425 v 3.4033 q -0.1702,-0.0425 -0.7799,-0.12763 -0.5956,-0.0993 -1.2621,-0.0993 -1.5882,0 -2.836,0.66648 -1.2337,0.65229 -1.9569,1.8151 -0.709,1.1486 -0.709,2.6234 v 13.783 z"
               id="path5333" />
          </g>
        </g>
      </g>
    </g>
  </g>
</svg>